<?xml version="1.0" standalone="no"?>
<!DOCTYPE svg PUBLIC "-//W3C//DTD SVG 20010904//EN"
 "http://www.w3.org/TR/2001/REC-SVG-20010904/DTD/svg10.dtd">
<svg version="1.0" xmlns="http://www.w3.org/2000/svg"
 width="500.000000pt" height="500.000000pt" viewBox="0 0 500.000000 500.000000"
 preserveAspectRatio="xMidYMid meet">

<g transform="translate(0.000000,500.000000) scale(0.100000,-0.100000)"
fill="#000000" stroke="none">
<path d="M3475 4436 c-51 -23 -90 -69 -109 -132 -5 -17 1 -23 44 -38 l51 -18
32 35 c44 49 82 53 123 12 34 -35 19 -59 -49 -79 -80 -23 -119 -75 -140 -184
-7 -35 -2 -40 65 -56 25 -6 30 -2 53 44 29 57 40 64 118 79 105 19 143 67 135
166 -6 69 -43 118 -118 158 -59 31 -152 37 -205 13z m196 -42 c65 -36 91 -73
97 -139 4 -47 1 -56 -24 -84 -22 -23 -43 -34 -81 -41 -83 -15 -108 -32 -133
-93 l-23 -54 -33 10 c-40 12 -41 18 -13 91 24 66 51 89 125 111 61 17 81 44
70 90 -8 32 -60 65 -105 65 -26 0 -42 -8 -68 -36 -32 -35 -36 -36 -74 -28
l-40 9 31 48 c57 90 162 110 271 51z"/>
<path d="M2463 4141 c-71 -59 -553 -547 -793 -801 -368 -391 -1014 -1124
-1064 -1207 -20 -35 26 -1 160 118 496 439 1165 1089 1610 1564 87 94 163 172
167 174 5 1 183 -169 397 -378 236 -232 395 -381 407 -381 11 0 28 6 39 14 17
13 19 28 19 168 l0 153 141 3 141 3 6 -342 6 -342 263 -264 c298 -300 516
-508 523 -501 3 3 -159 181 -359 397 l-365 392 4 67 c3 37 7 199 10 360 4 281
4 293 -15 312 -19 19 -34 20 -223 20 -160 0 -207 -3 -223 -14 -16 -12 -20 -30
-24 -116 l-5 -101 -335 356 c-184 197 -345 366 -359 376 -37 30 -65 23 -128
-30z"/>
<path d="M3409 3940 l-24 -20 27 11 c55 24 104 -44 62 -85 -23 -24 -43 -20
-77 17 -18 19 -28 25 -24 14 4 -10 7 -23 7 -28 0 -4 14 -16 31 -25 44 -22 77
-11 95 31 13 31 13 39 0 64 -13 24 -40 40 -67 41 -4 0 -17 -9 -30 -20z"/>
<path d="M2408 3669 c-302 -313 -1125 -1176 -1258 -1319 l-145 -155 134 125
c74 69 420 414 770 767 l635 642 687 -692 c703 -709 981 -979 704 -682 -425
455 -1357 1424 -1382 1439 -13 7 -42 -18 -145 -125z"/>
<path d="M2170 2705 l0 -175 175 0 175 0 0 175 0 175 -175 0 -175 0 0 -175z
m269 89 c24 -5 31 -12 31 -30 0 -29 -11 -31 -28 -4 -15 24 -64 27 -83 4 -19
-23 -2 -43 55 -65 53 -20 66 -32 66 -65 0 -37 -32 -55 -91 -52 -52 3 -54 4
-57 33 l-2 30 21 -27 c22 -30 54 -36 83 -15 29 21 16 50 -30 67 -23 8 -49 21
-58 29 -24 20 -20 67 6 85 25 18 40 19 87 10z"/>
<path d="M2570 2705 l0 -175 175 0 175 0 0 175 0 175 -175 0 -175 0 0 -175z
m220 -2 c18 -49 39 -93 46 -99 23 -18 16 -24 -27 -24 -36 0 -40 2 -29 15 22
27 4 45 -45 45 -49 0 -67 -18 -45 -45 11 -13 8 -15 -19 -15 -17 0 -31 5 -31
10 0 6 4 10 9 10 5 0 19 28 32 63 40 109 49 127 63 127 8 0 27 -37 46 -87z"/>
<path d="M2717 2711 c-10 -23 -17 -44 -17 -46 0 -3 16 -5 36 -5 32 0 35 2 28
23 -3 12 -12 33 -19 46 -12 23 -12 23 -28 -18z"/>
<path d="M2170 2305 l0 -175 175 0 175 0 0 175 0 175 -175 0 -175 0 0 -175z
m320 115 c0 -11 -4 -20 -10 -20 -5 0 -10 7 -10 15 0 11 -12 15 -50 15 l-50 0
0 -40 c0 -39 1 -40 35 -40 24 0 35 5 35 15 0 8 5 15 10 15 6 0 10 -16 10 -35
0 -19 -4 -35 -10 -35 -5 0 -10 7 -10 15 0 10 -11 15 -35 15 -35 0 -35 0 -35
-45 0 -33 4 -45 15 -45 8 0 15 -4 15 -10 0 -5 -21 -10 -47 -10 -42 1 -46 2
-30 14 14 11 17 29 17 99 0 73 -3 86 -17 90 -10 3 24 5 75 6 86 1 92 0 92 -19z"/>
<path d="M2570 2305 l0 -175 175 0 175 0 0 175 0 175 -175 0 -175 0 0 -175z
m260 75 c0 -11 -4 -20 -10 -20 -5 0 -10 7 -10 15 0 11 -12 15 -50 15 l-50 0 0
-40 c0 -39 1 -40 35 -40 24 0 35 5 35 15 0 8 5 15 10 15 6 0 10 -16 10 -35 0
-19 -4 -35 -10 -35 -5 0 -10 7 -10 15 0 10 -11 15 -35 15 -35 0 -35 0 -35 -45
l0 -45 50 0 c38 0 50 4 50 15 0 8 5 15 10 15 6 0 10 -11 10 -25 0 -25 0 -25
-92 -25 -80 1 -90 3 -75 14 14 11 17 29 17 99 0 73 -3 86 -17 90 -10 3 24 5
75 6 86 1 92 0 92 -19z"/>
</g>
</svg>
